<?xml version="1.0" encoding="utf-8" ?>
<svg xmlns="http://www.w3.org/2000/svg" xmlns:xlink="http://www.w3.org/1999/xlink" width="1820" height="1024">
	<path fill="#ACAEAE" d="M1061.19 518.337C1071.13 515.149 1242.45 411.69 1244.15 408.901C1244.25 408.728 1244.31 408.53 1244.39 408.344C1246.84 413.634 1247.57 437.024 1245.58 442.467C1245.34 443.135 1245.05 443.762 1244.7 444.383C1238.52 451.827 1125.86 515.728 1105.75 527.658C1091.04 536.381 1076.08 547.315 1060.68 554.574C1056.73 558.185 1050.2 561.166 1045.53 564.029C1029.31 573.99 1012.91 583.629 996.458 593.208C996.585 581.441 996.4 569.654 996.355 557.885C1005.17 552.396 1058.32 522.87 1061.19 518.337Z"/>
	<path fill="#E9EAEA" d="M574.15 344.499C612.028 369.134 652.03 391.172 690.933 414.199L776.359 465.143C791.825 474.363 808.047 483.149 822.896 493.312L822.727 530.653C798.822 516.503 774.755 502.437 751.299 487.554C691.791 452.817 632.699 416.738 574.036 380.597L574.15 344.499Z"/>
	<defs>
		<linearGradient id="gradient_0" gradientUnits="userSpaceOnUse" x1="770.77179" y1="623.04388" x2="623.55438" y2="381.40057">
			<stop offset="0" stop-color="#CACACA"/>
			<stop offset="1" stop-color="#F2F4F4"/>
		</linearGradient>
	</defs>
	<path fill="url(#gradient_0)" d="M572.361 408.44C590.011 420.73 609.882 431.219 628.329 442.428L751.337 517.236C775.257 531.36 799.316 545.397 822.845 560.163C822.785 572.506 822.917 584.886 822.599 597.223L751.207 554.016C731.909 541.23 711.484 529.783 691.747 517.658C652.116 493.31 612.534 468.812 572.538 445.073L572.361 408.44Z"/>
	<path fill="#ACAEAE" d="M1124.76 413.29C1132.09 411.051 1241.87 345.792 1244.65 341.573C1246.73 346.161 1247.28 373.786 1245.31 379.123C1245.05 379.827 1245.03 379.837 1244.75 380.432C1243.11 382.451 1071.11 486.576 1060.68 490.637C1054.08 497.13 1006.86 523.419 996.317 529.451L996.416 490.341C1009.75 481.927 1122.44 417.606 1124.76 413.29Z"/>
	<path fill="#E9EAEA" d="M631.796 297.712C683.891 267.675 735.885 236.904 787.354 205.813C827.002 181.863 867.467 156.448 908.144 134.407C911.404 144.784 907.836 184.374 909.237 199.043L909.163 199.735C893.331 207.849 878.099 217.953 862.831 227.108C840.625 240.423 818.144 253.408 796.109 266.994C760.669 287.538 725.968 309.34 690.551 329.925C690.589 348.603 689.82 367.65 690.795 386.282C671.7 373.898 651.482 362.718 631.951 350.994L631.796 297.712Z"/>
	<defs>
		<linearGradient id="gradient_1" gradientUnits="userSpaceOnUse" x1="1164.0009" y1="369.29739" x2="925.31989" y2="121.25131">
			<stop offset="0" stop-color="#B0B1B1"/>
			<stop offset="1" stop-color="#DAD9D8"/>
		</linearGradient>
	</defs>
	<path fill="url(#gradient_1)" d="M908.144 134.407C912.241 134.01 1006.24 190.174 1019.81 198.114L1155.32 278.1C1161.43 281.788 1180.83 291.914 1184.91 296.39C1185.08 296.572 1185.19 296.798 1185.32 297.003C1187.03 302.052 1187.59 347.554 1185.45 351.464C1185.3 351.725 1185.14 351.972 1184.98 352.226C1181.77 356.353 1129.88 387.097 1125.31 387.563C1125.16 387.577 1125.02 387.581 1124.87 387.59C1126.9 382.461 1126.91 332.057 1124.89 326.607C1122.34 322.886 1029.54 269.414 1023.75 267.452C1022.52 264.603 920.371 205.52 909.237 199.043C907.836 184.374 911.404 144.784 908.144 134.407Z"/>
	<defs>
		<linearGradient id="gradient_2" gradientUnits="userSpaceOnUse" x1="797.03351" y1="840.146" x2="672.11377" y2="499.10876">
			<stop offset="0" stop-color="#B4B6B6"/>
			<stop offset="1" stop-color="#E6E6E6"/>
		</linearGradient>
	</defs>
	<path fill="url(#gradient_2)" d="M632.796 509.945C651.855 522.156 671.686 533.43 691.107 545.074C711.079 557.072 730.924 569.394 751.208 580.857L750.981 637.373C743.378 641.945 693.877 670.73 692.378 674.612C741.094 702.68 789.143 732.074 837.368 760.988L880.648 786.976C886.914 790.737 894.552 794.337 900.257 798.817C897.313 799.828 892.84 796.543 889.365 796.587C880.533 796.7 851.757 807.21 847.659 815.361C846.869 816.933 846.326 820.055 845.083 821.154C841.651 824.188 838.18 823.201 837.031 828.918C829.531 825.434 822.323 820.618 815.177 816.42L772.014 790.787L632.782 706.897L632.796 509.945Z"/>
	<defs>
		<linearGradient id="gradient_3" gradientUnits="userSpaceOnUse" x1="696.92175" y1="671.60382" x2="730.41913" y2="558.89777">
			<stop offset="0" stop-color="#7C7B7B"/>
			<stop offset="1" stop-color="#969898"/>
		</linearGradient>
	</defs>
	<path fill="url(#gradient_3)" d="M691.107 545.074C711.079 557.072 730.924 569.394 751.208 580.857L750.981 637.373C743.378 641.945 693.877 670.73 692.378 674.612C689.608 670.721 691.099 558.474 691.107 545.074Z"/>
	<defs>
		<linearGradient id="gradient_4" gradientUnits="userSpaceOnUse" x1="1089.1495" y1="797.15912" x2="1005.5673" y2="582.6972">
			<stop offset="0" stop-color="#7D8384"/>
			<stop offset="1" stop-color="#A3A6A6"/>
		</linearGradient>
	</defs>
	<path fill="url(#gradient_4)" d="M1124.3 547.092C1131.16 544.002 1182.69 513.874 1185.23 510.255C1186.11 512.121 1186.51 513.727 1186.61 515.798C1187.4 532.74 1188.48 698.555 1186.67 703.736C1186.47 704.331 1186.36 704.464 1186.03 705.058C1181.55 710.235 1151.51 726.514 1144.09 730.991L970.466 834.044C949.967 846.086 929.508 859.687 908.446 870.621C898.176 865.622 888.364 858.91 878.447 853.197C864.723 845.29 850.074 837.886 837.031 828.918C838.18 823.201 841.651 824.188 845.083 821.154C846.326 820.055 846.869 816.933 847.659 815.361C851.757 807.21 880.533 796.7 889.365 796.587C892.84 796.543 897.313 799.828 900.257 798.817C902.677 800.064 906.487 802.654 909.192 802.396C909.115 779.464 908.632 756.537 908.876 733.603C919.183 726.907 929.572 720.348 940.039 713.906C951.308 706.971 1059.03 640.839 1062.12 640.473C1062.67 640.408 1063.2 640.732 1063.75 640.861C1083.23 652.044 1102.87 663.935 1122.96 673.958L1125.21 672.508C1126.44 664.523 1126.23 550.922 1124.3 547.092Z"/>
	<path fill="#ACAEAE" d="M909.192 802.396L1034.5 727.196C1057.93 713.322 1082.75 700.411 1105.17 684.991C1104.8 686.985 1104.91 687.118 1103.2 688.286C1083.35 701.854 1061.43 713.179 1040.8 725.583L908.435 805.139C908.446 826.943 908.839 848.825 908.446 870.621C898.176 865.622 888.364 858.91 878.447 853.197C864.723 845.29 850.074 837.886 837.031 828.918C838.18 823.201 841.651 824.188 845.083 821.154C846.326 820.055 846.869 816.933 847.659 815.361C851.757 807.21 880.533 796.7 889.365 796.587C892.84 796.543 897.313 799.828 900.257 798.817C902.677 800.064 906.487 802.654 909.192 802.396Z"/>
	<defs>
		<linearGradient id="gradient_5" gradientUnits="userSpaceOnUse" x1="1021.9317" y1="781.5694" x2="1001.5184" y2="651.25055">
			<stop offset="0" stop-color="#4B4D4F"/>
			<stop offset="1" stop-color="#6E7171"/>
		</linearGradient>
	</defs>
	<path fill="url(#gradient_5)" d="M908.876 733.603C919.183 726.907 929.572 720.348 940.039 713.906C951.308 706.971 1059.03 640.839 1062.12 640.473C1062.67 640.408 1063.2 640.732 1063.75 640.861C1083.23 652.044 1102.87 663.935 1122.96 673.958C1118.1 678.419 1110.93 681.721 1105.17 684.991C1082.75 700.411 1057.93 713.322 1034.5 727.196L909.192 802.396C909.115 779.464 908.632 756.537 908.876 733.603Z"/>
	<defs>
		<linearGradient id="gradient_6" gradientUnits="userSpaceOnUse" x1="1096.4769" y1="562.91827" x2="677.66577" y2="360.98132">
			<stop offset="0" stop-color="#1D1E1E"/>
			<stop offset="1" stop-color="#45494A"/>
		</linearGradient>
	</defs>
	<path fill="url(#gradient_6)" d="M909.237 199.043C920.371 205.52 1022.52 264.603 1023.75 267.452C1029.54 269.414 1122.34 322.886 1124.89 326.607C1126.91 332.057 1126.9 382.461 1124.87 387.59C1126.26 393.644 1127.04 407.526 1124.76 413.29C1122.44 417.606 1009.75 481.927 996.416 490.341L996.317 529.451C1006.86 523.419 1054.08 497.13 1060.68 490.637C1063.86 495.631 1063.13 511.114 1061.64 516.961C1061.43 517.755 1061.44 517.697 1061.19 518.337C1058.32 522.87 1005.17 552.396 996.355 557.885C996.4 569.654 996.585 581.441 996.458 593.208C1012.91 583.629 1029.31 573.99 1045.53 564.029C1050.2 561.166 1056.73 558.185 1060.68 554.574C1066.06 563.148 1059.41 630.866 1062.82 637.301C1063.37 638.332 1064.72 639.291 1065.4 640.371L1063.75 640.861C1063.2 640.732 1062.67 640.408 1062.12 640.473C1059.03 640.839 951.308 706.971 940.039 713.906C929.572 720.348 919.183 726.907 908.876 733.603C908.632 756.537 909.115 779.464 909.192 802.396C906.487 802.654 902.677 800.064 900.257 798.817C894.552 794.337 886.914 790.737 880.648 786.976L837.368 760.988C789.143 732.074 741.094 702.68 692.378 674.612C693.877 670.73 743.378 641.945 750.981 637.373L751.208 580.857C751.577 571.932 751.292 562.948 751.207 554.016L822.599 597.223C822.917 584.886 822.785 572.506 822.845 560.163C799.316 545.397 775.257 531.36 751.337 517.236L751.299 487.554C774.755 502.437 798.822 516.503 822.727 530.653L822.896 493.312C808.047 483.149 791.825 474.363 776.359 465.143L690.933 414.199C690.992 404.887 690.972 395.592 690.795 386.282C689.82 367.65 690.589 348.603 690.551 329.925C725.968 309.34 760.669 287.538 796.109 266.994C818.144 253.408 840.625 240.423 862.831 227.108C878.099 217.953 893.331 207.849 909.163 199.735L909.237 199.043Z"/>
	<path fill="#ACAEAE" d="M927.014 625.869C927.29 646.572 927.209 667.278 927.182 687.982C925.174 689.492 923.367 690.486 921.018 691.378C918.914 685.37 920.469 638.935 920.486 629.04C922.491 627.734 924.832 626.848 927.014 625.869Z"/>
	<path fill="#E9EAEA" d="M1025.07 296.289C1025.26 296.34 1025.46 296.38 1025.66 296.443C1027.84 297.149 1030.45 298.368 1031.55 300.439C1030.88 301.873 1030.11 302.312 1028.79 303.131C1004.51 318.301 979.209 332.083 954.613 346.775C941.903 354.367 921.724 368.332 909.308 373.606L849.334 337.182C831.299 326.138 813.372 314.74 794.709 304.775C781.073 313.706 766.589 321.618 752.506 329.827L748.411 327.076L748.247 325.683C762.036 314.485 780.07 305.845 795.4 296.672C815.029 308.116 834.403 320.066 853.756 331.971C868.724 340.928 890.295 355.543 904.925 362.528L909.288 365.171C913.49 365.142 958.914 336.432 965.975 332.191C978.029 325.975 1016.05 304.487 1025.07 296.289Z"/>
	<path fill="#E9EAEA" d="M920.278 449.212L1053.93 369.536C1063.97 363.524 1092.06 344.473 1100.61 341.928L1101.48 343.261C1101.52 346.446 1101.69 347.35 1099.86 350.099C1083.75 360.722 1066.43 369.842 1049.88 379.786L926.955 453.126C927.024 510.685 926.336 568.321 927.014 625.869C924.832 626.848 922.491 627.734 920.486 629.04C921.392 569.14 919.741 509.136 920.278 449.212Z"/>
	<path fill="#05776F" d="M971.399 598.918C971.471 619.931 971.219 641.017 971.672 662.022C956.902 670.34 942.526 679.387 927.731 687.625C927.407 666.855 927.87 646.033 927.704 625.251C942.543 616.922 957.272 608.419 971.399 598.918Z"/>
	<path fill="#069A8E" d="M849.903 478.087C851.479 491.829 850.527 506.651 850.556 520.524L850.661 599.495C864.052 608.403 883.271 617.945 894.815 628.053L894.817 690.579C879.924 681.104 864.726 672.083 849.689 662.836L849.587 540.325C849.551 519.852 848.005 498.421 849.903 478.087Z"/>
	<path fill="#E9EAEA" d="M717.769 346.979L717.387 344.405C718.321 343.304 718.549 342.606 720.118 342.593C725.838 342.545 881.963 437.834 901.87 450.34L902.004 694.963L894.817 690.579L894.815 628.053L894.669 454.512C875.522 441.676 855.338 430.149 835.586 418.263C796.278 394.608 756.663 371.301 717.769 346.979Z"/>
	<path fill="#464949" d="M853.756 331.971C857.882 327.65 905.093 299.107 909.917 298.407C921.962 307.198 935.846 314.195 948.814 321.572C954.273 324.677 961.419 327.872 965.975 332.191C958.914 336.432 913.49 365.142 909.288 365.171L904.925 362.528C890.295 355.543 868.724 340.928 853.756 331.971Z"/>
	<path fill="#ACAEAE" d="M796.109 266.994C818.144 253.408 840.625 240.423 862.831 227.108C878.099 217.953 893.331 207.849 909.163 199.735C909.407 222.91 907.864 248.858 909.496 271.632C893.391 283.552 873.96 293.131 856.573 303.133C837.198 290.209 816.141 278.934 796.109 266.994Z"/>
	<path fill="#6A6C6D" d="M909.237 199.043C920.371 205.52 1022.52 264.603 1023.75 267.452C1019.58 273.003 973.742 298.205 963.905 304.242L909.496 271.632C907.864 248.858 909.407 222.91 909.163 199.735L909.237 199.043Z"/>
	<path fill="#08CDBB" d="M794.709 304.775C813.372 314.74 831.299 326.138 849.334 337.182L909.308 373.606C909.301 390.072 910.826 409.364 909.508 425.447C857.798 392.739 804.999 361.268 752.506 329.827C766.589 321.618 781.073 313.706 794.709 304.775Z"/>
	<path fill="#069A8E" d="M1031.55 300.439C1036.56 301.983 1073.88 323.136 1075.59 326.234C1072.07 331.299 925.606 417.021 909.508 425.447C910.826 409.364 909.301 390.072 909.308 373.606C921.724 368.332 941.903 354.367 954.613 346.775C979.209 332.083 1004.51 318.301 1028.79 303.131C1030.11 302.312 1030.88 301.873 1031.55 300.439Z"/>
	<defs>
		<linearGradient id="gradient_7" gradientUnits="userSpaceOnUse" x1="797.26129" y1="788.43512" x2="811.15729" y2="648.565">
			<stop offset="0" stop-color="#696969"/>
			<stop offset="1" stop-color="#909595"/>
		</linearGradient>
	</defs>
	<path fill="url(#gradient_7)" d="M751.341 640.589L861.225 705.689C877.042 715.031 893.288 723.907 908.876 733.603C908.632 756.537 909.115 779.464 909.192 802.396C906.487 802.654 902.677 800.064 900.257 798.817C894.552 794.337 886.914 790.737 880.648 786.976L837.368 760.988C789.143 732.074 741.094 702.68 692.378 674.612C696.958 675.187 743.849 644.994 751.341 640.589Z"/>
	<path fill="#069A8E" d="M926.955 453.126L1049.88 379.786C1066.43 369.842 1083.75 360.722 1099.86 350.099C1102.55 354.769 1102.25 391.781 1100.66 397.733C1100.5 398.364 1100.38 398.58 1100.12 399.223C1095.14 406.286 989.088 465.811 971.193 476.276L971.399 598.918C957.272 608.419 942.543 616.922 927.704 625.251C927.87 646.033 927.407 666.855 927.731 687.625L927.182 687.982C927.209 667.278 927.29 646.572 927.014 625.869C926.336 568.321 927.024 510.685 926.955 453.126Z"/>
	<path fill="#08CDBB" d="M717.769 346.979C756.663 371.301 796.278 394.608 835.586 418.263C855.338 430.149 875.522 441.676 894.669 454.512L894.815 628.053C883.271 617.945 864.052 608.403 850.661 599.495L850.556 520.524C850.527 506.651 851.479 491.829 849.903 478.087C834.618 468.349 818.675 459.438 803.072 450.208L718.167 399.93C718.207 382.458 719.223 364.368 717.769 346.979Z"/>
</svg>
